<svg width="24" height="24" viewBox="0 0 24 24" fill="none" xmlns="http://www.w3.org/2000/svg">
<path d="M12 9.5502L4.64997 16.9002C4.39997 17.1502 4.1083 17.2712 3.77497 17.2632C3.44163 17.2552 3.14997 17.1259 2.89997 16.8752C2.64997 16.6245 2.52497 16.3329 2.52497 16.0002C2.52497 15.6675 2.64997 15.3759 2.89997 15.1252L10.575 7.4252C10.775 7.2252 11 7.07519 11.25 6.97519C11.5 6.87519 11.75 6.82519 12 6.82519C12.25 6.82519 12.5 6.8752 12.75 6.9752C13 7.0752 13.225 7.2252 13.425 7.4252L21.125 15.1252C21.375 15.3752 21.496 15.6712 21.488 16.0132C21.48 16.3552 21.3506 16.6509 21.1 16.9002C20.8493 17.1495 20.5576 17.2745 20.225 17.2752C19.8923 17.2759 19.6006 17.1509 19.35 16.9002L12 9.5502Z" fill="white"/>
</svg>
