<svg width="38" height="38" viewBox="0 0 38 38" fill="none" xmlns="http://www.w3.org/2000/svg">
<g id="Frame 53">
<path id="Vector" d="M18.4739 30.5618C18.7963 30.3623 19.2037 30.3623 19.5261 30.5618L28.7108 36.2435C29.4653 36.7102 30.4088 36.0362 30.2119 35.1711L27.7573 24.3869C27.6763 24.0311 27.7956 23.6594 28.0684 23.4172L36.2659 16.1387C36.9217 15.5564 36.5636 14.472 35.69 14.3948L24.9429 13.445C24.5717 13.4121 24.2496 13.1757 24.107 12.8315L19.9239 2.73086C19.583 1.9077 18.417 1.9077 18.0761 2.73086L13.893 12.8315C13.7504 13.1757 13.4283 13.4121 13.0571 13.445L2.30715 14.395C1.43393 14.4722 1.07557 15.5557 1.73056 16.1383L9.91406 23.4178C10.1861 23.6598 10.3051 24.0305 10.2248 24.3856L7.78403 35.1747C7.58841 36.0395 8.53147 36.7122 9.28547 36.2458L18.4739 30.5618Z" fill="#7260F5"/>
<path id="2" d="M23.2464 24.8101V26.5H15.2356V25.0538L19.0785 20.9022C19.4794 20.4472 19.7962 20.0518 20.0291 19.716C20.262 19.3802 20.4272 19.0768 20.5247 18.806C20.6276 18.5298 20.6791 18.2671 20.6791 18.0179C20.6791 17.655 20.6141 17.3382 20.4841 17.0674C20.3541 16.7911 20.1645 16.5772 19.9154 16.4255C19.6716 16.2739 19.371 16.198 19.0135 16.198C18.6181 16.198 18.2796 16.2901 17.998 16.4743C17.7217 16.653 17.5105 16.9022 17.3643 17.2217C17.2234 17.5413 17.153 17.9069 17.153 18.3186H15C15 17.6198 15.1625 16.9834 15.4875 16.4093C15.8125 15.8297 16.2783 15.3666 16.8849 15.02C17.4915 14.6733 18.2119 14.5 19.046 14.5C19.8585 14.5 20.5464 14.6354 21.1097 14.9062C21.673 15.1716 22.1009 15.5508 22.3934 16.0437C22.6859 16.5366 22.8321 17.1242 22.8321 17.8067C22.8321 18.1858 22.7698 18.5596 22.6452 18.9279C22.5207 19.2962 22.3446 19.6618 22.1171 20.0247C21.8951 20.3822 21.6297 20.7451 21.3209 21.1134C21.0122 21.4817 20.6682 21.8582 20.2891 22.2427L17.9817 24.8101H23.2464Z" fill="white"/>
</g>
</svg>
