<svg width="38" height="38" viewBox="0 0 38 38" fill="none" xmlns="http://www.w3.org/2000/svg">
<g id="Frame 54">
<path id="Vector" d="M18.4739 30.5618C18.7963 30.3623 19.2037 30.3623 19.5261 30.5618L28.7108 36.2435C29.4653 36.7102 30.4088 36.0362 30.2119 35.1711L27.7573 24.3869C27.6763 24.0311 27.7956 23.6594 28.0684 23.4172L36.2659 16.1387C36.9217 15.5564 36.5636 14.472 35.69 14.3948L24.9429 13.445C24.5717 13.4121 24.2496 13.1757 24.107 12.8315L19.9239 2.73086C19.583 1.9077 18.417 1.9077 18.0761 2.73086L13.893 12.8315C13.7504 13.1757 13.4283 13.4121 13.0571 13.445L2.30715 14.395C1.43393 14.4722 1.07557 15.5557 1.73056 16.1383L9.91406 23.4178C10.1861 23.6598 10.3051 24.0305 10.2248 24.3856L7.78403 35.1747C7.58841 36.0395 8.53147 36.7122 9.28547 36.2458L18.4739 30.5618Z" fill="#7260F5"/>
<path id="3" d="M17.5972 19.5661H18.7916C19.2138 19.5661 19.5611 19.494 19.8337 19.3497C20.1116 19.2001 20.3173 18.997 20.4509 18.7405C20.5898 18.4786 20.6593 18.1767 20.6593 17.8347C20.6593 17.498 20.5979 17.2067 20.4749 16.9609C20.352 16.7098 20.165 16.5174 19.9138 16.3838C19.668 16.2448 19.3527 16.1754 18.9679 16.1754C18.658 16.1754 18.3721 16.2368 18.1102 16.3597C17.8537 16.4826 17.648 16.659 17.493 16.8888C17.3434 17.1132 17.2685 17.3831 17.2685 17.6984H15.1443C15.1443 17.0678 15.31 16.5147 15.6413 16.0391C15.978 15.5581 16.4322 15.1814 17.004 14.9088C17.5758 14.6363 18.2144 14.5 18.9198 14.5C19.6894 14.5 20.3627 14.6283 20.9399 14.8848C21.5224 15.1359 21.9739 15.5073 22.2946 15.999C22.6206 16.4906 22.7836 17.0999 22.7836 17.8267C22.7836 18.174 22.7007 18.5214 22.5351 18.8687C22.3747 19.2108 22.1369 19.5207 21.8216 19.7986C21.5117 20.0711 21.1296 20.2929 20.6754 20.4639C20.2265 20.6296 19.7108 20.7124 19.1283 20.7124H17.5972V19.5661ZM17.5972 21.2014V20.0711H19.1283C19.7856 20.0711 20.3547 20.1486 20.8357 20.3036C21.322 20.4532 21.7228 20.667 22.0381 20.9449C22.3534 21.2174 22.5858 21.5354 22.7355 21.8988C22.8904 22.2622 22.9679 22.6523 22.9679 23.0691C22.9679 23.6142 22.8664 24.1005 22.6633 24.5281C22.4603 24.9502 22.1743 25.3083 21.8056 25.6022C21.4422 25.8961 21.0147 26.1206 20.523 26.2756C20.0314 26.4252 19.4997 26.5 18.9279 26.5C18.4309 26.5 17.9472 26.4332 17.477 26.2996C17.012 26.1607 16.5925 25.9549 16.2184 25.6824C15.8444 25.4045 15.5478 25.0571 15.3287 24.6403C15.1096 24.2181 15 23.7291 15 23.1733H17.1242C17.1242 23.494 17.2017 23.7799 17.3567 24.0311C17.517 24.2822 17.7361 24.48 18.014 24.6242C18.2973 24.7632 18.6152 24.8327 18.9679 24.8327C19.358 24.8327 19.6921 24.7632 19.9699 24.6242C20.2532 24.48 20.4696 24.2769 20.6192 24.015C20.7689 23.7478 20.8437 23.4299 20.8437 23.0611C20.8437 22.6229 20.7609 22.2675 20.5952 21.995C20.4295 21.7224 20.1917 21.522 19.8818 21.3938C19.5772 21.2655 19.2138 21.2014 18.7916 21.2014H17.5972Z" fill="white"/>
</g>
</svg>
