<svg width="104" height="104" viewBox="0 0 104 104" fill="none" xmlns="http://www.w3.org/2000/svg">
<path d="M51.9999 89.2002C39.0832 89.2002 27.6649 82.5868 20.9999 72.6668C21.1549 62.3335 41.6666 56.6502 51.9999 56.6502C62.3332 56.6502 82.8449 62.3335 82.9999 72.6668C79.5848 77.7536 74.971 81.9222 69.565 84.8055C64.1589 87.6887 58.1267 89.1979 51.9999 89.2002ZM51.9999 15.8335C56.1108 15.8335 60.0533 17.4665 62.9601 20.3733C65.8669 23.2802 67.4999 27.2226 67.4999 31.3335C67.4999 35.4444 65.8669 39.3868 62.9601 42.2937C60.0533 45.2005 56.1108 46.8335 51.9999 46.8335C47.8891 46.8335 43.9466 45.2005 41.0398 42.2937C38.1329 39.3868 36.4999 35.4444 36.4999 31.3335C36.4999 27.2226 38.1329 23.2802 41.0398 20.3733C43.9466 17.4665 47.8891 15.8335 51.9999 15.8335ZM51.9999 0.333496C45.215 0.333496 38.4964 1.66989 32.2279 4.26639C25.9594 6.86288 20.2638 10.6686 15.4661 15.4663C5.77669 25.1557 0.333252 38.2973 0.333252 52.0002C0.333252 65.703 5.77669 78.8446 15.4661 88.534C20.2638 93.3317 25.9594 97.1375 32.2279 99.7339C38.4964 102.33 45.215 103.667 51.9999 103.667C65.7028 103.667 78.8444 98.2234 88.5338 88.534C98.2231 78.8446 103.667 65.703 103.667 52.0002C103.667 23.4285 80.4166 0.333496 51.9999 0.333496Z" fill="white"/>
</svg>
