<svg width="28" height="28" viewBox="0 0 28 28" fill="none" xmlns="http://www.w3.org/2000/svg">
<g id="mdi:eye-off">
<path id="Vector" d="M13.8016 10.5L17.5 14.1867V14C17.5 13.0717 17.1312 12.1815 16.4748 11.5251C15.8185 10.8687 14.9282 10.5 14 10.5H13.8016ZM8.78496 11.4333L10.5933 13.2417C10.535 13.4867 10.5 13.7317 10.5 14C10.5 14.9283 10.8687 15.8185 11.5251 16.4749C12.1815 17.1313 13.0717 17.5 14 17.5C14.2566 17.5 14.5133 17.465 14.7583 17.4067L16.5666 19.215C15.785 19.6 14.9216 19.8333 14 19.8333C12.4529 19.8333 10.9691 19.2188 9.87517 18.1248C8.78121 17.0308 8.16663 15.5471 8.16663 14C8.16663 13.0783 8.39996 12.215 8.78496 11.4333ZM2.33329 4.98167L4.99329 7.64167L5.51829 8.16667C3.59329 9.68333 2.07663 11.6667 1.16663 14C3.18496 19.1217 8.16663 22.75 14 22.75C15.8083 22.75 17.535 22.4 19.11 21.77L19.6116 22.26L23.0183 25.6667L24.5 24.185L3.81496 3.5M14 8.16667C15.5471 8.16667 17.0308 8.78125 18.1247 9.87521C19.2187 10.9692 19.8333 12.4529 19.8333 14C19.8333 14.7467 19.6816 15.47 19.4133 16.1233L22.8316 19.5417C24.5816 18.0833 25.9816 16.17 26.8333 14C24.815 8.87833 19.8333 5.25 14 5.25C12.3666 5.25 10.8033 5.54167 9.33329 6.06667L11.865 8.575C12.53 8.31833 13.2416 8.16667 14 8.16667Z" fill="#898790"/>
</g>
</svg>
