<svg width="28" height="28" viewBox="0 0 28 28" fill="none" xmlns="http://www.w3.org/2000/svg">
<g id="mdi:eye">
<path id="Vector" d="M14 10.5C13.0717 10.5 12.1815 10.8687 11.5251 11.5251C10.8687 12.1815 10.5 13.0717 10.5 14C10.5 14.9283 10.8687 15.8185 11.5251 16.4749C12.1815 17.1313 13.0717 17.5 14 17.5C14.9282 17.5 15.8185 17.1313 16.4748 16.4749C17.1312 15.8185 17.5 14.9283 17.5 14C17.5 13.0717 17.1312 12.1815 16.4748 11.5251C15.8185 10.8687 14.9282 10.5 14 10.5ZM14 19.8333C12.4529 19.8333 10.9691 19.2188 9.87517 18.1248C8.78121 17.0308 8.16663 15.5471 8.16663 14C8.16663 12.4529 8.78121 10.9692 9.87517 9.87521C10.9691 8.78125 12.4529 8.16667 14 8.16667C15.5471 8.16667 17.0308 8.78125 18.1247 9.87521C19.2187 10.9692 19.8333 12.4529 19.8333 14C19.8333 15.5471 19.2187 17.0308 18.1247 18.1248C17.0308 19.2188 15.5471 19.8333 14 19.8333ZM14 5.25C8.16663 5.25 3.18496 8.87833 1.16663 14C3.18496 19.1217 8.16663 22.75 14 22.75C19.8333 22.75 24.815 19.1217 26.8333 14C24.815 8.87833 19.8333 5.25 14 5.25Z" fill="#898790"/>
</g>
</svg>
