<svg width="38" height="38" viewBox="0 0 38 38" fill="none" xmlns="http://www.w3.org/2000/svg">
<path d="M19 23.1562C22.4846 23.1562 25.3086 20.3656 25.3086 16.9219V8.60938C25.3086 5.16562 22.4846 2.375 19 2.375C15.5154 2.375 12.6914 5.16562 12.6914 8.60938V16.9219C12.6914 20.3656 15.5154 23.1562 19 23.1562ZM31.2461 16.8477C31.2461 16.6844 31.1125 16.5508 30.9492 16.5508H28.7227C28.5594 16.5508 28.4258 16.6844 28.4258 16.8477C28.4258 22.0541 24.2064 26.2734 19 26.2734C13.7936 26.2734 9.57422 22.0541 9.57422 16.8477C9.57422 16.6844 9.44062 16.5508 9.27734 16.5508H7.05078C6.8875 16.5508 6.75391 16.6844 6.75391 16.8477C6.75391 23.108 11.452 28.2736 17.5156 29.0047V32.8047H12.1236C11.6152 32.8047 11.207 33.3354 11.207 33.9922V35.3281C11.207 35.4914 11.3109 35.625 11.4371 35.625H26.5629C26.6891 35.625 26.793 35.4914 26.793 35.3281V33.9922C26.793 33.3354 26.3848 32.8047 25.8764 32.8047H20.3359V29.0232C26.4701 28.3553 31.2461 23.16 31.2461 16.8477Z" fill="#7260F5"/>
</svg>
